<?xml version="1.0" encoding="UTF-8" standalone="no"?>
<!-- Created with Inkscape (http://www.inkscape.org/) -->

<svg
   width="188.85712mm"
   height="125.40039mm"
   viewBox="0 0 188.85712 125.40039"
   version="1.1"
   id="svg1"
   xml:space="preserve"
   inkscape:version="1.3.2 (091e20e, 2023-11-25, custom)"
   sodipodi:docname="projects.svg"
   xmlns:inkscape="http://www.inkscape.org/namespaces/inkscape"
   xmlns:sodipodi="http://sodipodi.sourceforge.net/DTD/sodipodi-0.dtd"
   xmlns="http://www.w3.org/2000/svg"
   xmlns:svg="http://www.w3.org/2000/svg"><sodipodi:namedview
     id="namedview1"
     pagecolor="#ffffff"
     bordercolor="#000000"
     borderopacity="0.25"
     inkscape:showpageshadow="2"
     inkscape:pageopacity="0.0"
     inkscape:pagecheckerboard="0"
     inkscape:deskcolor="#d1d1d1"
     inkscape:document-units="mm"
     inkscape:zoom="4"
     inkscape:cx="605.5"
     inkscape:cy="269.375"
     inkscape:window-width="1920"
     inkscape:window-height="974"
     inkscape:window-x="-11"
     inkscape:window-y="-11"
     inkscape:window-maximized="1"
     inkscape:current-layer="g79" /><defs
     id="defs1"><rect
       x="152.5"
       y="378.50638"
       width="141.68776"
       height="14.291996"
       id="rect73" /><rect
       x="152.5"
       y="378.50638"
       width="170.94543"
       height="49.889313"
       id="rect75" /><rect
       x="152.5"
       y="378.50638"
       width="94.555345"
       height="7.9741323"
       id="rect76" /><rect
       x="152.5"
       y="378.50638"
       width="170.94543"
       height="49.889313"
       id="rect78" /><rect
       x="152.5"
       y="378.50638"
       width="90.77244"
       height="15.698274"
       id="rect79" /><rect
       x="152.5"
       y="378.50638"
       width="49.945428"
       height="8.6393124"
       id="rect88" /><rect
       x="152.5"
       y="378.50638"
       width="75.524954"
       height="10.889312"
       id="rect93" /></defs><g
     inkscape:label="Layer 1"
     inkscape:groupmode="layer"
     id="layer1"
     style="display:inline"
     transform="translate(-15.249994,-31.485415)"><g
       id="g75"
       inkscape:label="ProjectCard2"
       style="display:inline"
       transform="matrix(1,0,0,-1,39.540826,243.85997)"><path
         style="display:inline;fill:#432fc6;fill-opacity:1;fill-rule:nonzero;stroke:none;stroke-width:0.349999;stroke-dasharray:none;stroke-opacity:0.988327"
         d="m 36.059363,91.113965 58.864016,0.154019 0.09354,27.107136 -65.15363,0.0935 V 97.304747 Z"
         id="path74"
         sodipodi:nodetypes="cccccc" /><text
         xml:space="preserve"
         id="text75"
         style="font-size:26.6667px;line-height:0;white-space:pre;shape-inside:url(#rect76);display:inline;fill:#efefef;fill-opacity:1;fill-rule:nonzero;stroke:none;stroke-width:1.32283;stroke-dasharray:none;stroke-opacity:0.988327"
         x="56.356853"
         y="0"
         transform="matrix(0.26458333,0,0,-0.26458333,22.713083,203.92391)"><tspan
           x="153.31244"
           y="386.16801"
           id="tspan5"><tspan
             style="font-weight:600;font-family:'Segoe UI';-inkscape-font-specification:'Segoe UI Semi-Bold';text-align:center;text-anchor:middle;fill:#ccf281"
             id="tspan3">ibrahim</tspan></tspan></text><path
         style="display:inline;fill:#3d1765;fill-opacity:1;fill-rule:nonzero;stroke:none;stroke-width:0.349999;stroke-dasharray:none;stroke-opacity:0.988327"
         d="m 36.059363,91.113965 -6.196074,6.190782 h 6.194458 z"
         id="path75"
         sodipodi:nodetypes="cccc" /><g
         id="g81"
         inkscape:label="plus"><path
           style="display:inline;fill:none;fill-opacity:1;fill-rule:nonzero;stroke:#f1dd64;stroke-width:0.349999;stroke-dasharray:none;stroke-opacity:0.988327"
           d="m 73.373836,128.3779 v 2.94665"
           id="path80"
           transform="matrix(1,0,0,-1,-39.540826,243.85997)" /><path
           style="display:inline;fill:none;fill-opacity:1;fill-rule:nonzero;stroke:#f1dd64;stroke-width:0.349999;stroke-dasharray:none;stroke-opacity:0.988327"
           d="m 32.125826,113.96782 h 3.162969"
           id="path81" /></g></g><g
       id="g79"
       inkscape:label="ProjectCard3"
       style="display:inline"
       transform="matrix(1,0,0,-1,121.78451,206.85728)"><path
         style="display:inline;fill:#432fc6;fill-opacity:1;fill-rule:nonzero;stroke:none;stroke-width:0.349999;stroke-dasharray:none;stroke-opacity:0.988327"
         d="M 36.059363,91.113965 82.322597,91.267984 82.2177,113.81106 29.863289,113.71747 V 97.304747 Z"
         id="path78"
         sodipodi:nodetypes="cccccc" /><text
         xml:space="preserve"
         id="text78"
         style="font-size:26.6667px;line-height:0;white-space:pre;shape-inside:url(#rect79);display:inline;fill:#efefef;fill-opacity:1;fill-rule:nonzero;stroke:none;stroke-width:1.32283;stroke-dasharray:none;stroke-opacity:0.988327"
         x="56.356853"
         y="0"
         transform="matrix(0.26458333,0,0,-0.26458333,16.771633,202.23777)"><tspan
           x="153.28282"
           y="386.16801"
           id="tspan9"><tspan
             style="font-family:Calibri;-inkscape-font-specification:Calibri;text-align:center;text-anchor:middle;fill:#ccf281"
             id="tspan7">MyShop</tspan></tspan></text><path
         style="fill:#3d1765;fill-opacity:1;fill-rule:nonzero;stroke:none;stroke-width:0.349999;stroke-dasharray:none;stroke-opacity:0.988327"
         d="m 36.059363,91.113965 -6.196074,6.190782 h 6.194458 z"
         id="path79"
         sodipodi:nodetypes="cccc" /><g
         id="g83"
         inkscape:label="plus"
         style="display:inline"
         transform="translate(43.540886,-4.8024016)"><path
           style="display:inline;fill:none;fill-opacity:1;fill-rule:nonzero;stroke:#f1dd64;stroke-width:0.339792;stroke-dasharray:none;stroke-opacity:0.988327"
           d="m 33.83301,115.24548 v -2.77729"
           id="path82" /><path
           style="display:inline;fill:none;fill-opacity:1;fill-rule:nonzero;stroke:#f1dd64;stroke-width:0.335802;stroke-dasharray:none;stroke-opacity:0.988327"
           d="m 32.302811,113.84084 h 2.91157"
           id="path83" /></g></g><path
       style="display:inline;fill:#3d1765;fill-opacity:1;fill-rule:nonzero;stroke:none;stroke-width:0.349999;stroke-dasharray:none;stroke-opacity:0.988327"
       d="m 147.96375,151.77568 c 0,0 -0.0234,2.362 -0.0468,2.87649 -0.0234,0.51449 0.46772,2.22168 1.70133,2.23337 1.23362,0.0117 2.59586,-0.36833 2.92911,-0.47941 0.33325,-0.11109 12.09369,-3.03875 12.60219,-3.21652 0.50849,-0.17776 1.50481,0.004 1.50481,-0.97151 0,-0.97565 -0.3638,-0.97565 -1.33945,-1.27331 -0.97565,-0.29766 -7.1872,-2.11728 -7.1872,-2.11728 l -10.18356,2.73003 z"
       id="path70"
       inkscape:label="feet2" /><path
       style="display:inline;fill:#3d1765;fill-opacity:1;fill-rule:nonzero;stroke:none;stroke-width:0.349999;stroke-dasharray:none;stroke-opacity:0.988327"
       d="m 163.893,77.131454 c 0,0 2.10998,-6.454632 2.72835,-7.711403 0.61838,-1.256771 0.85163,-1.248502 1.16582,-1.372526 0.3142,-0.124023 0.84336,-0.01654 0.96739,0.09922 0.12402,0.115755 0.51263,1.422135 0.52916,1.95957 0.0165,0.537435 2.33164,11.8153 2.33164,11.8153 0,0 0.22558,1.134062 0.0502,1.543317 -0.17539,0.409257 -0.61973,1.321313 -1.23946,1.333008 -0.61973,0.01169 -4.02621,-0.08456 -4.02621,-0.08456 z"
       id="path69"
       inkscape:label="feet1" /><path
       style="display:inline;fill:#ccf381;fill-opacity:1;fill-rule:nonzero;stroke:none;stroke-width:0.349999;stroke-dasharray:none;stroke-opacity:0.988327"
       d="m 123.74746,104.58949 c 0,0 1.52612,-10.530664 2.30353,-14.599842 0.77741,-4.069178 3.40062,-7.430764 6.09689,-8.231901 2.69628,-0.801135 30.5491,-8.243594 30.5491,-8.243594 l 4.54275,13.739323 -25.2862,8.687932 -0.81089,10.386312 -16.7554,2.45949 z"
       id="path68"
       inkscape:label="leg2" /><path
       style="display:inline;fill:#ccf381;fill-opacity:0.996109;fill-rule:nonzero;stroke:none;stroke-width:0.197;stroke-dasharray:none;stroke-opacity:0.988327"
       d="m 106.59377,122.1689 c 3.46114,2.24506 7.0626,3.27405 7.0626,3.27405 l 19.50346,-1.41951 c 0,0 0.47956,-0.0827 0.73587,0.008 0.25632,0.091 0.3638,0.81029 0.3638,0.81029 l 10.94714,27.38437 c 0,0 6.54566,-1.5966 8.22945,-2.01755 1.6838,-0.42095 7.77003,-2.33861 7.77003,-2.33861 L 149.225,115.22604 c 0,0 -1.45521,-3.63802 -2.8112,-5.25859 -1.35599,-1.62058 -5.06016,-3.52227 -5.06016,-3.52227 0,0 -0.64492,-0.29766 -0.92604,-0.47956 -0.28112,-0.1819 -1.17409,-0.28112 -1.17409,-0.28112 l -35.60299,2.9931 z"
       id="path65"
       inkscape:label="leg1" /><path
       style="display:inline;fill:#c9784b;fill-opacity:0.996109;fill-rule:nonzero;stroke:none;stroke-width:0.197;stroke-dasharray:none;stroke-opacity:0.988327"
       d="m 115.78828,107.56447 c 2.39779,-1.65364 5.37206,-2.36077 5.84564,-2.51662 0.65318,-0.21497 1.48828,-0.29765 2.18281,-0.28112 0.69453,0.0165 2.0836,0.19017 2.72852,0.47129 0.64492,0.28112 1.52135,1.03353 1.52135,1.03353 0,0 -1.27421,0.77095 -2.38416,0.87619 -1.07007,0.10145 -2.36397,0.0518 -2.36397,0.0518 l -5.22076,4.96511 z"
       id="path66"
       inkscape:label="hand1"
       sodipodi:nodetypes="cssscsccc" /><path
       style="display:inline;fill:none;fill-opacity:0.996109;fill-rule:nonzero;stroke:#efefef;stroke-width:0.35;stroke-dasharray:none;stroke-opacity:0.988327"
       d="m 122.86197,104.76468 c 1.11318,-0.002 1.57266,0.007 2.65484,0.19272 1.08218,0.18553 1.71814,0.60021 2.54979,1.31415 0.83164,0.71393 2.93521,-0.58705 11.18691,-0.58705 1.45522,0 1.17409,0.28112 2.10013,0.76068"
       id="path67"
       sodipodi:nodetypes="ccssc" /><ellipse
       style="display:inline;fill:#efefef;fill-opacity:1;fill-rule:nonzero;stroke:none;stroke-width:0.396273;stroke-dasharray:none;stroke-opacity:0.988327"
       id="path102"
       cx="27.320692"
       cy="121.67323"
       rx="12.070698"
       ry="12.26952"
       inkscape:label="Circle1" /><ellipse
       style="display:inline;fill:#efefef;fill-opacity:1;fill-rule:nonzero;stroke:none;stroke-width:0.396273;stroke-dasharray:none;stroke-opacity:0.988327"
       id="ellipse102"
       cx="192.03641"
       cy="130.45201"
       rx="12.070698"
       ry="12.26952"
       inkscape:label="Circle2" /><ellipse
       style="display:inline;fill:#efefef;fill-opacity:1;fill-rule:nonzero;stroke:none;stroke-width:0.396273;stroke-dasharray:none;stroke-opacity:0.988327"
       id="ellipse103"
       cx="121.83363"
       cy="53.715683"
       rx="12.070698"
       ry="12.26952"
       inkscape:label="Circle3" /><ellipse
       style="display:inline;fill:#ccf381;fill-opacity:1;fill-rule:nonzero;stroke:none;stroke-width:0.349999;stroke-dasharray:none;stroke-opacity:0.988327"
       id="path103"
       cx="75.752556"
       cy="47.164143"
       rx="3.9593194"
       ry="3.7599192"
       inkscape:label="Circle4" /><g
       id="g99"
       inkscape:label="!1"
       style="display:inline"><rect
         style="display:inline;fill:#efefef;fill-opacity:1;fill-rule:nonzero;stroke:none;stroke-width:0.349999;stroke-dasharray:none;stroke-opacity:0.988327"
         id="rect98"
         width="7.4744792"
         height="30.030209"
         x="182.87718"
         y="31.789434"
         transform="translate(0.28063301,-0.30401908)" /><ellipse
         style="display:inline;fill:#efefef;fill-opacity:1;fill-rule:nonzero;stroke:none;stroke-width:0.349999;stroke-dasharray:none;stroke-opacity:0.988327"
         id="path99"
         cx="186.89505"
         cy="71.171989"
         rx="5.308641"
         ry="5.028008" /></g><g
       id="g100"
       inkscape:label="!2"
       style="display:inline"
       transform="matrix(0.45510514,0,0,0.45510514,89.253098,27.140647)"><rect
         style="display:inline;fill:#432fc6;fill-opacity:1;fill-rule:nonzero;stroke:none;stroke-width:0.349999;stroke-dasharray:none;stroke-opacity:0.988327"
         id="rect99"
         width="7.4744792"
         height="30.030209"
         x="33.480743"
         y="33.543392" /><ellipse
         style="display:inline;fill:#432fc6;fill-opacity:1;fill-rule:nonzero;stroke:none;stroke-width:0.349999;stroke-dasharray:none;stroke-opacity:0.988327"
         id="ellipse99"
         cx="37.217976"
         cy="73.229965"
         rx="5.308641"
         ry="5.028008" /></g><g
       id="g101"
       inkscape:label="!3"
       style="display:inline"><rect
         style="display:inline;fill:#efefef;fill-opacity:1;fill-rule:nonzero;stroke:none;stroke-width:0.349999;stroke-dasharray:none;stroke-opacity:0.988327"
         id="rect100"
         width="7.4744792"
         height="30.030209"
         x="79.028511"
         y="70.194946" /><ellipse
         style="display:inline;fill:#efefef;fill-opacity:1;fill-rule:nonzero;stroke:none;stroke-width:0.349999;stroke-dasharray:none;stroke-opacity:0.988327"
         id="ellipse100"
         cx="82.765739"
         cy="109.88152"
         rx="5.308641"
         ry="5.028008" /></g><g
       id="g104"
       inkscape:label="!4"
       style="display:inline"><rect
         style="display:inline;fill:#efefef;fill-opacity:1;fill-rule:nonzero;stroke:none;stroke-width:0.349999;stroke-dasharray:none;stroke-opacity:0.988327"
         id="rect103"
         width="7.4744792"
         height="30.030209"
         x="79.028511"
         y="70.194946" /><ellipse
         style="display:inline;fill:#efefef;fill-opacity:1;fill-rule:nonzero;stroke:none;stroke-width:0.349999;stroke-dasharray:none;stroke-opacity:0.988327"
         id="ellipse104"
         cx="82.765739"
         cy="109.88152"
         rx="5.308641"
         ry="5.028008" /></g><g
       id="g105"
       inkscape:label="!5"
       style="display:inline"
       transform="matrix(0.18376069,0,0,0.18376069,68.46681,59.093002)"><rect
         style="display:inline;fill:#432fc6;fill-opacity:1;fill-rule:nonzero;stroke:none;stroke-width:0.349999;stroke-dasharray:none;stroke-opacity:0.988327"
         id="rect104"
         width="7.4744792"
         height="30.030209"
         x="33.480743"
         y="33.543392" /><ellipse
         style="display:inline;fill:#432fc6;fill-opacity:1;fill-rule:nonzero;stroke:none;stroke-width:0.349999;stroke-dasharray:none;stroke-opacity:0.988327"
         id="ellipse105"
         cx="37.217976"
         cy="73.229965"
         rx="5.308641"
         ry="5.028008" /></g><g
       id="g107"
       inkscape:label="!6"
       style="display:inline"><rect
         style="display:inline;fill:#efefef;fill-opacity:1;fill-rule:nonzero;stroke:none;stroke-width:0.349999;stroke-dasharray:none;stroke-opacity:0.988327"
         id="rect106"
         width="7.4744792"
         height="30.030209"
         x="33.635159"
         y="33.172134" /><ellipse
         style="display:inline;fill:#efefef;fill-opacity:1;fill-rule:nonzero;stroke:none;stroke-width:0.349999;stroke-dasharray:none;stroke-opacity:0.988327"
         id="ellipse106"
         cx="37.372387"
         cy="72.858711"
         rx="5.308641"
         ry="5.028008" /></g><path
       id="path1"
       style="display:inline;fill:#3d1765;fill-opacity:1;stroke-width:0.264583"
       d="m 128.00356,56.064278 -11.45408,0.603064 -2.0097,14.869894 -5.42551,7.83673 -0.12919,0.0739 c 0.13445,0.639858 0.24252,1.25254 0.31833,1.792655 0.28419,2.024796 -0.1065,2.77112 -0.39068,3.517098 -0.28418,0.745979 -0.60353,1.776138 -2.09548,2.877344 -1.49196,1.101205 -3.65923,1.06555 -4.76043,0.923458 -1.10121,-0.142091 -2.202448,-0.674877 -3.161564,-1.491899 -0.519775,-0.442771 -0.846715,-0.891588 -1.041797,-1.213879 l -0.594796,3.568774 c 0,0 -9.846498,6.832452 -8.640816,13.262753 1.20568,6.43031 0.201021,11.05204 0.201021,11.05204 0,0 -2.009745,11.2532 9.042342,11.6551 l 22.70714,-9.24388 -4.62194,-8.64081 7.13651,-2.68098 -7.94008,-10.983304 11.25306,-16.075505 z"
       inkscape:label="body"
       sodipodi:nodetypes="cccccsssssccscccccccc" /><g
       id="g19"
       style="display:inline"
       inkscape:label="face"><path
         style="display:inline;fill:#24272d;fill-opacity:1;stroke-width:0.264583"
         d="m 108.52211,69.127343 c -3.01944,0.781499 -3.69437,0.888068 -3.69437,0.888068 0,0 -3.62332,-0.63941 -4.44035,-0.461795 -0.817021,0.177614 -1.776135,0.319703 -2.98391,1.243298 -1.207776,0.923591 -1.77614,1.207772 -2.55764,2.273456 -0.781503,1.065686 -0.284184,5.150805 0.106569,5.861261 0.39075,0.710454 0.355227,0.639411 1.03016,0.248658 0.674931,-0.390749 1.491956,-0.248658 1.989275,0.03552 0.497319,0.284184 1.420911,2.024801 1.420911,2.024801 l 0.923595,-6.891422 c 0,0 1.06568,0.674934 2.06032,1.030161 0.99464,0.355229 3.41019,-0.284182 3.41019,-0.284182 0,0 1.03016,-0.284183 2.52211,-1.420913 1.49196,-1.136729 1.59853,-4.760052 0.21314,-4.546914 z"
         id="path14"
         inkscape:label="hair" /><path
         style="display:inline;fill:#c9784b;fill-opacity:1;stroke-width:0.264583"
         d="m 107.27881,74.384714 c 1.03016,1.811663 1.74062,4.831098 2.0248,6.855899 0.28419,2.024798 -0.10657,2.770775 -0.39075,3.516754 -0.28418,0.74598 -0.60389,1.77614 -2.09584,2.877347 -1.49196,1.101206 -3.65885,1.065683 -4.76005,0.923591 -1.10121,-0.142091 -2.202417,-0.674933 -3.161534,-1.491956 -0.959115,-0.817025 -1.278819,-1.669571 -1.278819,-1.669571 l -0.568364,-0.355227 -1.77614,-1.77614 c 0,0 -0.568365,-0.888071 -0.852549,-1.527479 -0.284181,-0.639411 0.894287,-2.28482 0.894287,-2.28482 0,0 0.745062,-0.3771 1.104604,-0.454873 2.471097,-0.534526 2.9743,2.242369 2.9743,2.242369 l 0.923595,-6.89142 c 0,0 2.19792,1.387776 3.71877,1.080199 1.74795,-0.353505 3.37101,-1.115968 3.24369,-1.044673 z"
         id="path15"
         sodipodi:nodetypes="cssssscccscsccsc"
         inkscape:label="face" /><ellipse
         style="fill:#24272d;fill-opacity:1;stroke-width:0.264583"
         id="path16"
         cx="102.64754"
         cy="79.779739"
         rx="0.46623656"
         ry="0.48399797" /><ellipse
         style="fill:#24272d;fill-opacity:1;stroke-width:0.264583"
         id="ellipse16"
         cx="106.58169"
         cy="79.295738"
         rx="0.46623656"
         ry="0.48399797" /><path
         style="fill:#24272d;fill-opacity:1;stroke-width:0.264583"
         d="m 105.0954,79.035054 c 0,0.02093 0,0.04187 0,0.0628"
         id="path19" /><path
         style="fill:#24272d;fill-opacity:1;stroke-width:0.264583"
         d="m 105.08284,79.009938 0.90426,1.946674"
         id="path20" /><path
         style="fill:#24272d;fill-opacity:0;fill-rule:nonzero;stroke:#24272d;stroke-width:0.2;stroke-dasharray:none;stroke-opacity:0.988327"
         d="m 105.0954,79.066453 c 0.59028,1.802246 0.60912,1.902719 0.62796,2.568358 0.0188,0.665636 -0.0628,0.923099 -0.27003,1.048691 -0.20722,0.125593 -0.57144,0.08792 -0.57144,0.08792"
         id="path21"
         sodipodi:nodetypes="ccsc" /><path
         style="fill:#24272d;fill-opacity:0;fill-rule:nonzero;stroke:#24272d;stroke-width:0.2;stroke-dasharray:none;stroke-opacity:0.988327"
         d="m 102.02144,84.419902 c 0.40407,0.928033 1.49861,1.118968 1.49861,1.118968"
         id="path22"
         sodipodi:nodetypes="cc" /><path
         style="fill:#24272d;fill-opacity:0;fill-rule:nonzero;stroke:#24272d;stroke-width:0.2;stroke-dasharray:none;stroke-opacity:0.988327"
         d="m 96.11557,81.484099 c 0.07535,0.05024 1.394071,1.130329 1.394071,1.130329"
         id="path23" /></g><g
       id="g36"
       style="display:inline"
       inkscape:label="circles"><ellipse
         style="fill:#432fc6;fill-opacity:1;stroke-width:0.196899"
         id="ellipse24"
         cx="120.16644"
         cy="64.980713"
         rx="3.2151551"
         ry="3.1403842" /><path
         id="ellipse25"
         style="fill:#432fc6;fill-opacity:1;stroke-width:0.196899"
         d="m 114.64417,70.763123 -0.10439,0.774113 -3.18999,4.607987 a 3.2151551,3.1403842 0 0 0 1.58233,0.415478 3.2151551,3.1403842 0 0 0 3.21531,-3.140376 3.2151551,3.1403842 0 0 0 -1.50326,-2.657202 z" /><path
         id="ellipse26"
         style="fill:#432fc6;fill-opacity:1;stroke-width:0.196899"
         d="m 125.59182,71.68658 a 3.2151551,3.1403842 0 0 0 -3.21479,3.140377 3.2151551,3.1403842 0 0 0 3.21479,3.140377 3.2151551,3.1403842 0 0 0 0.72605,-0.08888 l 0.078,-0.111622 0.43253,-5.838403 a 3.2151551,3.1403842 0 0 0 -1.23661,-0.241846 z" /><path
         id="ellipse27"
         style="fill:#432fc6;fill-opacity:1;stroke-width:0.196899"
         d="m 119.36274,79.925354 a 3.2151551,3.1403842 0 0 0 -3.21531,3.140377 3.2151551,3.1403842 0 0 0 3.21531,3.140377 3.2151551,3.1403842 0 0 0 1.32033,-0.27802 l 1.88206,-2.688724 a 3.2151551,3.1403842 0 0 0 0.0129,-0.173633 3.2151551,3.1403842 0 0 0 -3.21531,-3.140377 z" /><ellipse
         style="fill:#432fc6;fill-opacity:1;stroke-width:0.196899"
         id="ellipse28"
         cx="111.72667"
         cy="90.902908"
         rx="3.2151551"
         ry="3.1403842" /><path
         id="ellipse29"
         style="fill:#432fc6;fill-opacity:1;stroke-width:0.196899"
         d="m 117.75509,97.81005 a 3.2151551,3.1403842 0 0 0 -3.21531,3.14038 3.2151551,3.1403842 0 0 0 3.21531,3.14037 3.2151551,3.1403842 0 0 0 3.10265,-2.33525 l -2.84117,-3.934647 a 3.2151551,3.1403842 0 0 0 -0.26148,-0.01085 z" /><ellipse
         style="fill:#432fc6;fill-opacity:1;stroke-width:0.196899"
         id="ellipse30"
         cx="110.32004"
         cy="108.78722"
         rx="3.2151551"
         ry="3.1403842" /><ellipse
         style="fill:#432fc6;fill-opacity:1;stroke-width:0.196899"
         id="ellipse31"
         cx="104.29162"
         cy="100.14648"
         rx="3.2151551"
         ry="3.1403842" /><path
         id="ellipse32"
         style="fill:#432fc6;fill-opacity:1;stroke-width:0.196899"
         d="m 91.431112,95.398311 a 3.2151551,3.1403842 0 0 0 -0.427881,0.02997 c -1.088866,1.453805 -1.985289,3.06285 -2.330607,4.712889 a 3.2151551,3.1403842 0 0 0 2.758488,1.53789 3.2151551,3.1403842 0 0 0 3.214791,-3.140375 3.2151551,3.1403842 0 0 0 -3.214791,-3.140377 z" /><ellipse
         style="fill:#432fc6;fill-opacity:1;stroke-width:0.196899"
         id="ellipse33"
         cx="97.459412"
         cy="107.98342"
         rx="3.2151551"
         ry="3.1403842"
         inkscape:label="ellipse33" /><ellipse
         style="fill:#432fc6;fill-opacity:1;stroke-width:0.196899"
         id="ellipse34"
         cx="102.48309"
         cy="117.42794"
         rx="3.2151551"
         ry="3.1403842" /><path
         id="ellipse35"
         style="fill:#432fc6;fill-opacity:1;stroke-width:0.196899"
         inkscape:label="ellipse35"
         d="m 115.34386,115.49321 a 3.2151551,3.1403842 0 0 0 -3.2153,3.14038 3.2151551,3.1403842 0 0 0 0.13436,0.89503 l 5.90093,-2.40244 a 3.2151551,3.1403842 0 0 0 -2.81999,-1.63297 z" /><path
         id="ellipse36"
         style="fill:#432fc6;fill-opacity:1;stroke-width:0.196899"
         d="m 90.426005,113.68453 a 3.2151551,3.1403842 0 0 0 -1.661397,0.45786 c -0.106361,0.88035 -0.266311,3.24431 0.562756,5.62549 a 3.2151551,3.1403842 0 0 0 1.098641,0.19741 3.2151551,3.1403842 0 0 0 3.215308,-3.14038 3.2151551,3.1403842 0 0 0 -3.215308,-3.14038 z" /></g><g
       id="g93"
       inkscape:label="ProjectCard5"
       style="display:inline"
       transform="rotate(90,119.39445,125.87027)"><path
         style="display:inline;fill:#432fc6;fill-opacity:1;fill-rule:nonzero;stroke:none;stroke-width:0.349999;stroke-dasharray:none;stroke-opacity:0.988327"
         d="m 36.059363,91.113965 31.904179,-0.0017 -0.04776,26.956215 -38.052493,0.0125 V 97.304707 Z"
         id="path89"
         sodipodi:nodetypes="cccccc" /><text
         xml:space="preserve"
         id="text89"
         style="font-size:21.3333px;line-height:0;white-space:pre;shape-inside:url(#rect93);shape-padding:0.25;display:inline;fill:#efefef;fill-opacity:1;fill-rule:nonzero;stroke:none;stroke-width:1.32283;stroke-dasharray:none;stroke-opacity:0.988327"
         x="56.356853"
         y="0"
         transform="matrix(-0.26458333,0,0,-0.26458333,93.812306,205.00466)"><tspan
           x="162.21586"
           y="384.88556"
           id="tspan12"><tspan
             style="font-family:Calibri;-inkscape-font-specification:Calibri;text-align:center;text-anchor:middle;fill:#ccf281"
             id="tspan11">Cg-fne</tspan></tspan></text><path
         style="fill:#3d1765;fill-opacity:1;fill-rule:nonzero;stroke:none;stroke-width:0.349999;stroke-dasharray:none;stroke-opacity:0.988327"
         d="m 36.059363,91.113965 -6.196074,6.190782 h 6.194458 z"
         id="path90"
         sodipodi:nodetypes="cccc" /><g
         id="g92"
         inkscape:label="plus"
         style="display:inline"
         transform="translate(30.840315,-19.307448)"><path
           style="display:inline;fill:none;fill-opacity:1;fill-rule:nonzero;stroke:#f1dd64;stroke-width:0.339792;stroke-dasharray:none;stroke-opacity:0.988327"
           d="m 33.83301,115.24548 v -2.77729"
           id="path91" /><path
           style="display:inline;fill:none;fill-opacity:1;fill-rule:nonzero;stroke:#f1dd64;stroke-width:0.335802;stroke-dasharray:none;stroke-opacity:0.988327"
           d="m 32.302811,113.84084 h 2.91157"
           id="path92" /></g></g><path
       style="display:inline;fill:#c9784b;fill-opacity:1;fill-rule:nonzero;stroke:none;stroke-width:0.349999;stroke-dasharray:none;stroke-opacity:0.988327"
       d="m 122.53234,56.352341 c 0.006,-3.09e-4 0.59813,-3.204165 1.55724,-6.246873 0.95912,-3.042708 2.45836,-5.15157 2.80039,-5.169109 0.34202,-0.01754 0.34494,0.05262 0.34494,0.05262 l 0.0793,5.562975 c 0,0 1.48828,-1.058333 1.90169,-1.240234 0.41342,-0.181901 0.62366,-0.183404 0.61196,0.208315 -0.0117,0.391715 -0.0702,0.444333 -0.25725,0.876977 -0.18708,0.432641 -0.60803,1.368086 -0.60803,1.473322 0,0.105238 -1.62002,4.228748 -1.62002,4.228748 z"
       id="path71" /><g
       id="g94"
       inkscape:label="ProjectCard6"
       style="display:inline"
       transform="translate(0.280633,-0.30401909)"><rect
         style="display:inline;fill:#432fc6;fill-opacity:1;fill-rule:nonzero;stroke:none;stroke-width:0.349999;stroke-dasharray:none;stroke-opacity:0.988327"
         id="rect94"
         width="11.552726"
         height="19.22336"
         x="-71.552895"
         y="44.739704"
         transform="translate(245.26472,6.47582)" /><g
         id="g95"
         inkscape:label="plus"
         style="display:inline"
         transform="rotate(90,113.62802,150.94415)"><path
           style="display:inline;fill:none;fill-opacity:1;fill-rule:nonzero;stroke:#f1dd64;stroke-width:0.259961;stroke-dasharray:none;stroke-opacity:0.988327"
           d="M 30.942203,89.973734 V 87.848939"
           id="path94" /><path
           style="display:inline;fill:none;fill-opacity:1;fill-rule:nonzero;stroke:#f1dd64;stroke-width:0.256909;stroke-dasharray:none;stroke-opacity:0.988327"
           d="m 29.771508,88.899099 h 2.227527"
           id="path95" /></g><rect
         style="display:inline;fill:#ccf381;fill-opacity:1;fill-rule:nonzero;stroke:none;stroke-width:0.349999;stroke-dasharray:none;stroke-opacity:0.988327"
         id="rect95"
         width="0.99390852"
         height="4.3381186"
         x="181.54617"
         y="53.308575"
         transform="translate(-0.280633,0.30401909)" /><ellipse
         style="display:inline;fill:#ccf381;fill-opacity:1;fill-rule:nonzero;stroke:none;stroke-width:0.349999;stroke-dasharray:none;stroke-opacity:0.988327"
         id="path96"
         cx="182.04312"
         cy="59.192062"
         rx="0.63142115"
         ry="0.61973119"
         transform="translate(-0.280633,0.30401909)" /></g><g
       id="g97"
       style="display:inline"
       transform="translate(0.28063301,-0.30401908)"
       inkscape:label="ProjectCard7"><rect
         style="display:inline;fill:#432fc6;fill-opacity:1;fill-rule:nonzero;stroke:none;stroke-width:0.349999;stroke-dasharray:none;stroke-opacity:0.988327"
         id="rect97"
         width="16.503386"
         height="13.989843"
         x="174.11285"
         y="141.26079" /><g
         id="g98"
         inkscape:label="plus"
         style="display:inline"
         transform="matrix(0,1.2412698,-1.2412698,0,292.63285,109.85858)"><path
           style="display:inline;fill:none;fill-opacity:1;fill-rule:nonzero;stroke:#f1dd64;stroke-width:0.259961;stroke-dasharray:none;stroke-opacity:0.988327"
           d="M 30.942203,89.973734 V 87.848939"
           id="path97" /><path
           style="display:inline;fill:none;fill-opacity:1;fill-rule:nonzero;stroke:#f1dd64;stroke-width:0.256909;stroke-dasharray:none;stroke-opacity:0.988327"
           d="m 29.771508,88.899099 h 2.227527"
           id="path98" /></g></g><g
       id="g73"
       inkscape:label="ProjectCard1"
       style="display:inline"><path
         style="display:inline;fill:#432fc6;fill-opacity:1;fill-rule:nonzero;stroke:none;stroke-width:0.349999;stroke-dasharray:none;stroke-opacity:0.988327"
         d="m 35.784896,91.446614 52.848361,-0.03307 V 120.76574 H 29.279376 V 97.660284 Z"
         id="path72"
         sodipodi:nodetypes="cccccc" /><text
         xml:space="preserve"
         id="text73"
         style="font-size:29.3333px;line-height:0;white-space:pre;shape-inside:url(#rect73);display:inline;fill:#efefef;fill-opacity:1;fill-rule:nonzero;stroke:none;stroke-width:1.32283;stroke-dasharray:none;stroke-opacity:0.988327"
         x="56.356853"
         y="0"
         transform="matrix(0.26458333,0,0,0.26458333,16.106127,6.1257679)"><tspan
           x="164.29759"
           y="386.93421"
           id="tspan14"><tspan
             style="font-family:Calibri;-inkscape-font-specification:Calibri;text-align:center;text-anchor:middle;fill:#ccf281"
             id="tspan13">SuperKidz</tspan></tspan></text><path
         style="fill:#3d1765;fill-opacity:1;fill-rule:nonzero;stroke:none;stroke-width:0.349999;stroke-dasharray:none;stroke-opacity:0.988327"
         d="m 35.784895,91.446613 -6.505519,6.213668 h 6.505519 z"
         id="path73" /></g><g
       id="g88"
       inkscape:label="ProjectCard4"
       style="display:inline"
       transform="matrix(1,0,0,-1,38.636359,175.91369)"><path
         style="display:inline;fill:#432fc6;fill-opacity:1;fill-rule:nonzero;stroke:none;stroke-width:0.349999;stroke-dasharray:none;stroke-opacity:0.988327"
         d="m 14.076444,90.739788 14.26558,-0.03615 -0.0456,23.472622 H 17.312071 l -3.070689,-2.81734 z"
         id="path84"
         sodipodi:nodetypes="cccccc" /><text
         xml:space="preserve"
         id="text84"
         style="font-size:16px;line-height:0;white-space:pre;shape-inside:url(#rect88);display:inline;fill:#efefef;fill-opacity:1;fill-rule:nonzero;stroke:none;stroke-width:1.32283;stroke-dasharray:none;stroke-opacity:0.988327"
         x="56.356853"
         y="0"
         transform="matrix(0,0.26458333,0.26458333,0,-78.566789,61.419763)"><tspan
           x="152.54688"
           y="383.10314"
           id="tspan16"><tspan
             style="font-family:Calibri;-inkscape-font-specification:Calibri;text-align:center;text-anchor:middle;fill:#ccf281"
             id="tspan15">ibrahim</tspan></tspan></text><path
         style="display:inline;fill:#3d1765;fill-opacity:1;fill-rule:nonzero;stroke:none;stroke-width:0.349999;stroke-dasharray:none;stroke-opacity:0.988327"
         d="m 17.312071,114.17626 -3.070689,-2.81734 h 3.102142 z"
         id="path85"
         sodipodi:nodetypes="cccc" /><g
         id="g87"
         inkscape:label="plus"
         transform="matrix(0.54158982,0,0,0.54158982,8.0091531,49.751574)"><path
           style="display:inline;fill:none;fill-opacity:1;fill-rule:nonzero;stroke:#f1dd64;stroke-width:0.349999;stroke-dasharray:none;stroke-opacity:0.988327"
           d="m 73.373836,128.3779 v 2.94665"
           id="path86"
           transform="matrix(1,0,0,-1,-39.540826,243.85997)" /><path
           style="display:inline;fill:none;fill-opacity:1;fill-rule:nonzero;stroke:#f1dd64;stroke-width:0.349999;stroke-dasharray:none;stroke-opacity:0.988327"
           d="m 32.125826,113.96782 h 3.162969"
           id="path87" /></g></g><g
       id="g106"
       inkscape:label="plus"
       style="display:inline"
       transform="rotate(90,90.136699,114.84773)"><path
         style="display:inline;fill:none;fill-opacity:1;fill-rule:nonzero;stroke:#f1dd64;stroke-width:0.339792;stroke-dasharray:none;stroke-opacity:0.988327"
         d="m 35.107552,115.23379 -2.666014,-2.66036"
         id="path105"
         sodipodi:nodetypes="cc" /><path
         style="display:inline;fill:none;fill-opacity:1;fill-rule:nonzero;stroke:#f1dd64;stroke-width:0.335802;stroke-dasharray:none;stroke-opacity:0.988327"
         d="m 32.378816,115.30247 2.753714,-2.7771"
         id="path106"
         sodipodi:nodetypes="cc" /></g></g></svg>
